<?xml version="1.0" encoding="UTF-8" standalone="no"?>
<!-- Created with Inkscape (http://www.inkscape.org/) -->

<svg
   xmlns:osb="http://www.openswatchbook.org/uri/2009/osb"
   xmlns:dc="http://purl.org/dc/elements/1.1/"
   xmlns:cc="http://creativecommons.org/ns#"
   xmlns:rdf="http://www.w3.org/1999/02/22-rdf-syntax-ns#"
   xmlns:svg="http://www.w3.org/2000/svg"
   xmlns="http://www.w3.org/2000/svg"
   xmlns:sodipodi="http://sodipodi.sourceforge.net/DTD/sodipodi-0.dtd"
   xmlns:inkscape="http://www.inkscape.org/namespaces/inkscape"
   width="1650"
   height="2400"
   id="svg2"
   version="1.1"
   inkscape:version="0.48.2 r9819"
   sodipodi:docname="fieldguide.svg"
   inkscape:export-filename="/Users/jdavenpo/Dropbox/newdataformanagers/manuscript/images/title_page.png"
   inkscape:export-xdpi="300"
   inkscape:export-ydpi="300">
  <defs
     id="defs4">
    <linearGradient
       id="linearGradient3771"
       osb:paint="solid">
      <stop
         style="stop-color:#ffffff;stop-opacity:1;"
         offset="0"
         id="stop3773" />
    </linearGradient>
  </defs>
  <sodipodi:namedview
     id="base"
     pagecolor="#ffffff"
     bordercolor="#666666"
     borderopacity="1.0"
     inkscape:pageopacity="0.0"
     inkscape:pageshadow="2"
     inkscape:zoom="0.35355339"
     inkscape:cx="701.84423"
     inkscape:cy="742.14818"
     inkscape:document-units="px"
     inkscape:current-layer="svg2"
     showgrid="false"
     showguides="true"
     inkscape:guide-bbox="true"
     inkscape:window-width="1287"
     inkscape:window-height="814"
     inkscape:window-x="73"
     inkscape:window-y="0"
     inkscape:window-maximized="0" />
  <metadata
     id="metadata7">
    <rdf:RDF>
      <cc:Work
         rdf:about="">
        <dc:format>image/svg+xml</dc:format>
        <dc:type
           rdf:resource="http://purl.org/dc/dcmitype/StillImage" />
        <dc:title></dc:title>
      </cc:Work>
    </rdf:RDF>
  </metadata>
  <rect
     style="fill:#ecdc58;fill-opacity:1;stroke:#ffffff;stroke-width:7.80008268;stroke-linejoin:round;stroke-miterlimit:4;stroke-opacity:1;stroke-dasharray:none"
     id="rect3785"
     width="1642.1998"
     height="2392.2"
     x="3.9000413"
     y="3.9000216" />
  <text
     xml:space="preserve"
     style="font-size:120px;font-style:normal;font-variant:normal;font-weight:normal;font-stretch:normal;text-align:start;line-height:125%;letter-spacing:0px;word-spacing:0px;writing-mode:lr-tb;text-anchor:start;fill:#000000;fill-opacity:1;stroke:none;font-family:Al Nile;-inkscape-font-specification:Al Nile"
     x="112.22266"
     y="832.24323"
     id="text3802"
     sodipodi:linespacing="125%"><tspan
       sodipodi:role="line"
       id="tspan3804"
       x="112.22266"
       y="832.24323"
       style="font-size:120px;font-style:normal;font-variant:normal;font-weight:normal;font-stretch:normal;text-align:start;line-height:125%;writing-mode:lr-tb;text-anchor:start;font-family:Al Nile;-inkscape-font-specification:Al Nile">New Data: a Field Guide.</tspan><tspan
       sodipodi:role="line"
       x="112.22266"
       y="1010.6443"
       style="font-size:120px;font-style:normal;font-variant:normal;font-weight:normal;font-stretch:normal;text-align:start;line-height:125%;writing-mode:lr-tb;text-anchor:start;font-family:Al Nile;-inkscape-font-specification:Al Nile"
       id="tspan3810" /></text>
  <text
     xml:space="preserve"
     style="font-size:144px;font-style:normal;font-variant:normal;font-weight:normal;font-stretch:normal;line-height:125%;letter-spacing:0px;word-spacing:0px;fill:#000000;fill-opacity:1;stroke:none;font-family:Weibei SC;-inkscape-font-specification:Weibei SC"
     x="327.28943"
     y="969.62402"
     id="text3812"
     sodipodi:linespacing="125%"><tspan
       sodipodi:role="line"
       id="tspan3814"
       x="327.28943"
       y="969.62402" /></text>
  <text
     xml:space="preserve"
     style="font-size:72px;font-style:normal;font-variant:normal;font-weight:normal;font-stretch:normal;line-height:125%;letter-spacing:0px;word-spacing:0px;fill:#000000;fill-opacity:1;stroke:none;font-family:Weibei SC;-inkscape-font-specification:Weibei SC"
     x="116.93359"
     y="945.38025"
     id="text3820"
     sodipodi:linespacing="125%"><tspan
       sodipodi:role="line"
       id="tspan3822"
       x="116.93359"
       y="945.38025"
       style="font-style:normal;font-variant:normal;font-weight:normal;font-stretch:normal;font-family:Al Bayan;-inkscape-font-specification:Al Bayan">Intro to NoSQL and New SQL</tspan></text>
  <g
     id="Expanded"
     transform="matrix(7.6670068,0,0,7.5681818,1112.7029,258.86364)">
    <g
       id="g3924">
      <g
         id="g3926">
        <path
           id="path3928"
           d="M 24,20 C 12.785,20 4,16.047 4,11 4,5.953 12.785,2 24,2 c 11.215,0 20,3.953 20,9 0,5.047 -8.785,9 -20,9 z M 24,4 C 15.486,4 6,6.875 6,11 c 0,4.125 9.486,7 18,7 8.514,0 18,-2.875 18,-7 C 42,6.875 32.514,4 24,4 z"
           inkscape:connector-curvature="0" />
      </g>
      <g
         id="g3930">
        <path
           id="path3932"
           d="M 24,28 C 12.785,28 4,24.047 4,19 v -8 c 0,-0.553 0.447,-1 1,-1 0.553,0 1,0.447 1,1 v 8 c 0,4.125 9.486,7 18,7 8.514,0 18,-2.875 18,-7 v -8 c 0,-0.553 0.447,-1 1,-1 0.553,0 1,0.447 1,1 v 8 c 0,5.047 -8.785,9 -20,9 z"
           inkscape:connector-curvature="0" />
      </g>
      <g
         id="g3934">
        <path
           id="path3936"
           d="M 24,37 C 12.785,37 4,33.047 4,28 v -9 c 0,-0.553 0.447,-1 1,-1 0.553,0 1,0.447 1,1 v 9 c 0,4.125 9.486,7 18,7 8.514,0 18,-2.875 18,-7 v -9 c 0,-0.553 0.447,-1 1,-1 0.553,0 1,0.447 1,1 v 9 c 0,5.047 -8.785,9 -20,9 z"
           inkscape:connector-curvature="0" />
      </g>
      <g
         id="g3938">
        <path
           id="path3940"
           d="M 24,46 C 12.785,46 4,42.047 4,37 v -9 c 0,-0.553 0.447,-1 1,-1 0.553,0 1,0.447 1,1 v 9 c 0,4.125 9.486,7 18,7 8.514,0 18,-2.875 18,-7 v -9 c 0,-0.553 0.447,-1 1,-1 0.553,0 1,0.447 1,1 v 9 c 0,5.047 -8.785,9 -20,9 z"
           inkscape:connector-curvature="0" />
      </g>
    </g>
  </g>
  <g
     id="Expanded-6"
     transform="matrix(7.549235,0,0,6.9375,634.34993,274)">
    <g
       id="g4085">
      <g
         id="g4087">
        <path
           id="path4089"
           d="M 31,18 H 17 V 8 H 31 V 18 z M 19,16 H 29 V 10 H 19 v 6 z"
           inkscape:connector-curvature="0" />
      </g>
      <g
         id="g4091">
        <path
           id="path4093"
           d="M 41,48 H 5 V 0 H 41 V 48 z M 7,46 H 39 V 2 H 7 v 44 z"
           inkscape:connector-curvature="0" />
      </g>
      <g
         id="g4095">
        <rect
           id="rect4097"
           y="13"
           x="40"
           width="5"
           height="2" />
      </g>
      <g
         id="g4099">
        <rect
           id="rect4101"
           y="21"
           x="40"
           width="5"
           height="2" />
      </g>
      <g
         id="g4103">
        <rect
           id="rect4105"
           y="29"
           x="40"
           width="5"
           height="2" />
      </g>
      <g
         id="g4107">
        <path
           id="path4109"
           d="m 42,39 h -2 v -2 h 2 c 1.103,0 2,-0.897 2,-2 V 9 C 44,7.897 43.103,7 42,7 H 40 V 5 h 2 c 2.206,0 4,1.794 4,4 v 26 c 0,2.206 -1.794,4 -4,4 z"
           inkscape:connector-curvature="0" />
      </g>
      <g
         id="g4111">
        <rect
           id="rect4113"
           y="8"
           x="3"
           width="6"
           height="2" />
      </g>
      <g
         id="g4115">
        <rect
           id="rect4117"
           y="14"
           x="3"
           width="6"
           height="2" />
      </g>
      <g
         id="g4119">
        <rect
           id="rect4121"
           y="20"
           x="3"
           width="6"
           height="2" />
      </g>
      <g
         id="g4123">
        <rect
           id="rect4125"
           y="26"
           x="3"
           width="6"
           height="2" />
      </g>
      <g
         id="g4127">
        <rect
           id="rect4129"
           y="32"
           x="3"
           width="6"
           height="2" />
      </g>
      <g
         id="g4131">
        <rect
           id="rect4133"
           y="38"
           x="3"
           width="6"
           height="2" />
      </g>
    </g>
  </g>
  <g
     id="Expanded-7"
     transform="matrix(6.1399496,0,0,6.1399496,191.63202,296.87602)">
    <g
       id="g4325">
      <g
         id="g4327">
        <path
           id="path4329"
           d="m 32.667,22.333 c -6.065,0 -11,-4.935 -11,-11 0,-6.065 4.935,-11 11,-11 6.065,0 11,4.935 11,11 0,6.065 -4.935,11 -11,11 z m 0,-20 c -4.963,0 -9,4.037 -9,9 0,4.963 4.037,9 9,9 4.963,0 9,-4.037 9,-9 0,-4.963 -4.037,-9 -9,-9 z"
           inkscape:connector-curvature="0" />
      </g>
      <g
         id="g4331">
        <path
           id="path4333"
           d="m 46.667,9.333 c -0.553,0 -1,0.448 -1,1 0,0.552 0.447,1 1,1 0.553,0 1,-0.448 1,-1 0,-0.552 -0.448,-1 -1,-1 l 0,0 z"
           inkscape:connector-curvature="0" />
      </g>
      <g
         id="g4335">
        <path
           id="path4337"
           d="m 46.667,46.333 c -0.553,0 -1,-0.447 -1,-1 v -32 c 0,-0.553 0.447,-1 1,-1 0.553,0 1,0.447 1,1 v 32 c 0,0.553 -0.447,1 -1,1 z"
           inkscape:connector-curvature="0" />
      </g>
      <g
         id="g4339">
        <path
           id="path4341"
           d="m 9.29,46.714 c -4.745,0 -8.24,-2.963 -9.591,-8.128 -0.123,-0.471 0.11,-0.962 0.554,-1.163 0.443,-0.2 0.966,-0.055 1.24,0.347 0.912,1.338 2.277,2.104 3.748,2.105 l 0,0 c 0.929,0 1.78,-0.32 2.396,-0.901 0.674,-0.634 1.029,-1.547 1.029,-2.641 0,-4.193 3.334,-6.456 6.471,-6.456 1.331,0 2.553,0.392 3.529,1.117 0.976,-0.726 2.197,-1.117 3.529,-1.117 3.137,0 6.471,2.263 6.471,6.456 0,2.446 1.721,3.542 3.426,3.542 1.47,0 2.836,-0.768 3.748,-2.105 0.274,-0.401 0.798,-0.547 1.24,-0.347 0.443,0.201 0.677,0.692 0.554,1.163 -1.351,5.165 -4.847,8.127 -9.592,8.128 -3.624,0 -7.312,-1.83 -9.376,-4.515 -2.063,2.685 -5.751,4.514 -9.376,4.515 l 0,0 z m 9.377,-7.381 c 0.379,0 0.725,0.214 0.895,0.553 1.376,2.752 5.022,4.828 8.481,4.828 1.671,0 4.327,-0.492 6.176,-3.223 -0.68,0.251 -1.397,0.384 -2.126,0.384 -2.696,0 -5.426,-1.904 -5.426,-5.542 0,-2.926 -2.249,-4.456 -4.471,-4.456 -1.127,0 -2.119,0.402 -2.795,1.134 -0.377,0.412 -1.09,0.411 -1.469,10e-4 -0.676,-0.731 -1.668,-1.135 -2.795,-1.135 -2.222,0 -4.471,1.53 -4.471,4.456 0,1.658 -0.573,3.075 -1.658,4.097 -0.988,0.932 -2.327,1.445 -3.768,1.445 0,0 0,0 -0.001,0 -0.728,-10e-4 -1.445,-0.133 -2.125,-0.384 1.849,2.73 4.504,3.223 6.176,3.223 3.459,-10e-4 7.105,-2.076 8.481,-4.828 0.171,-0.339 0.517,-0.553 0.896,-0.553 z"
           inkscape:connector-curvature="0" />
      </g>
      <g
         id="g4343">
        <path
           id="path4345"
           d="m 32.667,18.333 c -0.553,0 -1,-0.447 -1,-1 0,-0.553 0.447,-1 1,-1 2.757,0 5,-2.243 5,-5 0,-0.553 0.447,-1 1,-1 0.553,0 1,0.447 1,1 0,3.859 -3.141,7 -7,7 z"
           inkscape:connector-curvature="0" />
      </g>
    </g>
  </g>
  <rect
     style="fill:#ffffff;fill-opacity:1;stroke:#000000;stroke-width:0;stroke-linejoin:round;stroke-miterlimit:4;stroke-opacity:1;stroke-dasharray:none"
     id="rect4365"
     width="1640.4878"
     height="1329.3607"
     x="5.6568542"
     y="1070.6393" />
  <flowRoot
     xml:space="preserve"
     id="flowRoot4367"
     style="font-size:72px;font-style:normal;font-variant:normal;font-weight:normal;font-stretch:normal;line-height:125%;letter-spacing:0px;word-spacing:0px;fill:#000000;fill-opacity:1;stroke:none;font-family:Weibei SC;-inkscape-font-specification:Weibei SC"><flowRegion
       id="flowRegion4369"><rect
         id="rect4371"
         width="31.112698"
         height="166.8772"
         x="178.1909"
         y="1308.2272" /></flowRegion><flowPara
       id="flowPara4373">asdasd</flowPara></flowRoot>  <text
     xml:space="preserve"
     style="font-size:72px;font-style:normal;font-variant:normal;font-weight:normal;font-stretch:normal;text-align:start;line-height:125%;letter-spacing:0px;word-spacing:0px;writing-mode:lr-tb;text-anchor:start;fill:#47854e;fill-opacity:1;stroke:none;font-family:Weibei SC;-inkscape-font-specification:Weibei SC"
     x="80.249786"
     y="1229.0312"
     id="text4375"
     sodipodi:linespacing="125%"><tspan
       sodipodi:role="line"
       id="tspan4381"
       x="80.249786"
       y="1229.0312"
       style="font-style:normal;font-variant:normal;font-weight:normal;font-stretch:normal;fill:#000000;fill-opacity:1;font-family:Verdana;-inkscape-font-specification:Verdana">Covers the major families of new storage</tspan><tspan
       sodipodi:role="line"
       x="80.249786"
       y="1319.0312"
       style="font-style:normal;font-variant:normal;font-weight:normal;font-stretch:normal;fill:#000000;fill-opacity:1;font-family:Verdana;-inkscape-font-specification:Verdana"
       id="tspan4441">   Key-value</tspan><tspan
       sodipodi:role="line"
       id="tspan4383"
       x="80.249786"
       y="1409.0312"
       style="font-style:normal;font-variant:normal;font-weight:normal;font-stretch:normal;fill:#000000;fill-opacity:1;font-family:Verdana;-inkscape-font-specification:Verdana">   Document</tspan><tspan
       sodipodi:role="line"
       id="tspan4387"
       x="80.249786"
       y="1499.0312"
       style="font-style:normal;font-variant:normal;font-weight:normal;font-stretch:normal;fill:#000000;fill-opacity:1;font-family:Verdana;-inkscape-font-specification:Verdana">   Graph</tspan><tspan
       sodipodi:role="line"
       x="80.249786"
       y="1589.0312"
       style="font-style:normal;font-variant:normal;font-weight:normal;font-stretch:normal;fill:#000000;fill-opacity:1;font-family:Verdana;-inkscape-font-specification:Verdana"
       id="tspan4445">   Object</tspan><tspan
       sodipodi:role="line"
       id="tspan4389"
       x="80.249786"
       y="1679.0312"
       style="font-style:normal;font-variant:normal;font-weight:normal;font-stretch:normal;fill:#000000;fill-opacity:1;font-family:Verdana;-inkscape-font-specification:Verdana">   Columnar</tspan><tspan
       sodipodi:role="line"
       id="tspan4391"
       x="80.249786"
       y="1769.0312"
       style="font-style:normal;font-variant:normal;font-weight:normal;font-stretch:normal;fill:#000000;fill-opacity:1;font-family:Verdana;-inkscape-font-specification:Verdana">   New SQL (for scale and profit)</tspan><tspan
       sodipodi:role="line"
       x="80.249786"
       y="1859.0312"
       style="font-style:normal;font-variant:normal;font-weight:normal;font-stretch:normal;fill:#000000;fill-opacity:1;font-family:Verdana;-inkscape-font-specification:Verdana"
       id="tspan4475" /><tspan
       sodipodi:role="line"
       x="80.249786"
       y="1949.0312"
       style="font-style:normal;font-variant:normal;font-weight:normal;font-stretch:normal;fill:#000000;fill-opacity:1;font-family:Verdana;-inkscape-font-specification:Verdana"
       id="tspan4473">Provides overview and use cases for each</tspan></text>
  <text
     xml:space="preserve"
     style="font-size:72px;font-style:normal;font-variant:normal;font-weight:normal;font-stretch:normal;line-height:125%;letter-spacing:0px;word-spacing:0px;fill:#000000;fill-opacity:1;stroke:none;font-family:Weibei SC;-inkscape-font-specification:Weibei SC"
     x="1207.7384"
     y="2040.7898"
     id="text4397"
     sodipodi:linespacing="125%"><tspan
       sodipodi:role="line"
       id="tspan4399"
       x="1207.7384"
       y="2040.7898" /></text>
  <rect
     style="fill:#000000;fill-opacity:1;stroke:#000000;stroke-width:0;stroke-linejoin:round;stroke-miterlimit:4;stroke-opacity:1;stroke-dasharray:none"
     id="rect4447"
     width="1637.6593"
     height="33.941124"
     x="8.485281"
     y="1053.6687" />
  <path
     style="font-size:873.59954834px;font-style:normal;font-variant:normal;font-weight:normal;font-stretch:normal;text-align:start;line-height:125%;letter-spacing:0px;word-spacing:0px;writing-mode:tb-rl;text-anchor:start;fill:#000000;fill-opacity:1;stroke:none;font-family:Weibei SC;-inkscape-font-specification:Weibei SC"
     d="m 1585.3042,202.04225 c -1.5873,-20.81942 -5.2628,-42.37768 -35.8322,-61.5438 -15.9651,-10.45084 -49.2959,-18.11998 -86.8274,-21.82389 -86.8965,-8.98985 -181.609,-6.36162 -272.6119,-6.80692 -72.0595,-0.47987 -147.5237,2.03095 -216.22842,-5.34442 -32.12059,-3.26169 -58.65564,-10.363674 -70.66405,-19.435759 -20.47692,-14.433424 -18.12565,-30.376744 -18.06316,-45.676518 -35.77331,0 -71.54661,0 -107.31991,0 -0.0711,17.263897 3.28634,35.959343 -28.87294,51.340991 -23.43199,11.283886 -70.8264,15.833126 -114.27912,17.655116 -62.77825,2.56564 -126.66486,1.04435 -189.92801,1.46059 -86.28168,0.17085 -176.88554,-1.54765 -257.76784,8.11621 -35.51308,4.06996 -64.65119,12.1599 -78.78364,22.22415 C 79.332744,161.70804 76.125675,183.31442 75,204.29952 c 0,4.7303 0,9.46061 0,14.19092 36.02827,0 72.05654,0 108.08481,0 0.88258,-16.78307 -4.49671,-34.57829 20.29899,-50.25745 14.56977,-9.56172 52.26849,-13.26731 86.24987,-14.88535 64.0717,-2.89432 129.45442,-1.25908 194.11164,-1.69562 81.98601,-0.3958 168.08191,2.02605 245.47077,-6.90459 47.99971,-5.48431 78.78853,-18.74915 92.75669,-32.3414 3.3989,-3.05873 5.88192,-6.18996 9.15015,-9.28531 10.50623,13.72415 29.19633,28.10041 70.54637,36.64744 48.04875,9.69853 109.26441,11.04395 166.62831,11.80087 87.3604,0.39976 174.7972,-0.40198 262.1218,0.43154 38.4476,0.95257 81.4704,2.15516 111.1443,9.69298 27.4267,8.22425 31.706,20.24874 35.2149,31.06699 2.0941,8.56375 0.9838,17.15374 1.2645,25.7299 35.7733,0 71.5466,0 107.3199,0 -0.04,-5.48267 0.079,-10.96567 -0.059,-16.44819 z"
     id="text4449"
     inkscape:connector-curvature="0" />
  <path
     style="font-size:873.59954834px;font-style:normal;font-variant:normal;font-weight:normal;font-stretch:normal;text-align:start;line-height:125%;letter-spacing:0px;word-spacing:0px;writing-mode:tb-rl;text-anchor:start;fill:#000000;fill-opacity:1;stroke:none;font-family:Weibei SC;-inkscape-font-specification:Weibei SC"
     d="m 1585.3042,2226.0851 c -1.5873,20.8194 -5.2628,42.3776 -35.8322,61.5438 -15.9651,10.4508 -49.2959,18.12 -86.8274,21.8239 -86.8965,8.9898 -181.609,6.3616 -272.6119,6.8069 -72.0595,0.4798 -147.5237,-2.031 -216.22841,5.3444 -32.1206,3.2617 -58.65565,10.3637 -70.66406,19.4358 -20.47692,14.4334 -18.12565,30.3767 -18.06316,45.6765 -35.77331,0 -71.54661,0 -107.31991,0 -0.0711,-17.2639 3.28634,-35.9594 -28.87294,-51.341 -23.43199,-11.2839 -70.8264,-15.8331 -114.27912,-17.6551 -62.77825,-2.5657 -126.66486,-1.0444 -189.92801,-1.4606 -86.28168,-0.1709 -176.88554,1.5476 -257.76784,-8.1162 -35.51308,-4.07 -64.65119,-12.1599 -78.78364,-22.2242 -28.79287,-19.5 -31.99994,-41.1064 -33.12561,-62.0915 0,-4.7303 0,-9.4606 0,-14.1909 36.02827,0 72.05654,0 108.08481,0 0.88258,16.783 -4.49671,34.5783 20.29899,50.2574 14.56977,9.5617 52.26849,13.2673 86.24987,14.8854 64.0717,2.8943 129.45442,1.2591 194.11164,1.6956 81.98601,0.3958 168.08191,-2.0261 245.47077,6.9046 47.99971,5.4843 78.78853,18.7491 92.75669,32.3414 3.3989,3.0587 5.88192,6.1899 9.15015,9.2853 10.50623,-13.7241 29.19633,-28.1004 70.54637,-36.6474 48.04875,-9.6986 109.26441,-11.044 166.62831,-11.8009 87.3604,-0.3998 174.7972,0.402 262.1218,-0.4316 38.4476,-0.9525 81.4704,-2.1551 111.1443,-9.6929 27.4267,-8.2243 31.706,-20.2488 35.2149,-31.067 2.0941,-8.5638 0.9838,-17.1538 1.2645,-25.7299 35.7733,0 71.5466,0 107.3199,0 -0.04,5.4826 0.079,10.9656 -0.059,16.4482 z"
     id="text4449-3"
     inkscape:connector-curvature="0" />
  <text
     xml:space="preserve"
     style="font-size:72px;font-style:normal;font-variant:normal;font-weight:normal;font-stretch:normal;line-height:125%;letter-spacing:0px;word-spacing:0px;fill:#000000;fill-opacity:1;stroke:none;font-family:Weibei SC;-inkscape-font-specification:Weibei SC"
     x="509.11688"
     y="2221.8091"
     id="text4477"
     sodipodi:linespacing="125%"><tspan
       sodipodi:role="line"
       id="tspan4479"
       x="509.11688"
       y="2221.8091"
       style="font-style:normal;font-variant:normal;font-weight:normal;font-stretch:normal;font-family:Al Nile;-inkscape-font-specification:Al Nile">J Patrick Davenport</tspan></text>
</svg>
